SplineFontDB: 3.0
FontName: Faber
FullName: Faber
FamilyName: Faber
Weight: Medium
Copyright: Created by Frank ADEBIAYE with FontForge 2.0 (http://fontforge.sf.net)
UComments: "2011-4-9: Created." 
Version: 001.000
ItalicAngle: 0
UnderlinePosition: -100
UnderlineWidth: 50
Ascent: 700
Descent: 300
LayerCount: 2
Layer: 0 0 "Back"  1
Layer: 1 0 "Fore"  0
NeedsXUIDChange: 1
XUID: [1021 32 261939104 10116039]
FSType: 0
OS2Version: 0
OS2_WeightWidthSlopeOnly: 0
OS2_UseTypoMetrics: 1
CreationTime: 1302351128
ModificationTime: 1302353998
OS2TypoAscent: 0
OS2TypoAOffset: 1
OS2TypoDescent: 0
OS2TypoDOffset: 1
OS2TypoLinegap: 90
OS2WinAscent: 0
OS2WinAOffset: 1
OS2WinDescent: 0
OS2WinDOffset: 1
HheadAscent: 0
HheadAOffset: 1
HheadDescent: 0
HheadDOffset: 1
DEI: 91125
Encoding: UnicodeBmp
UnicodeInterp: none
NameList: Adobe Glyph List
DisplaySize: -24
AntiAlias: 1
FitToEm: 1
WinInfo: 0 30 16
Grid
-1000 552 m 0
 2000 552 l 0
  Named: "acute" 
246 1200 m 0
 246 -800 l 0
  Named: "a" 
-1000 -13 m 0
 2000 -13 l 0
  Named: "under" 
-1000 16 m 0
 2000 16 l 0
  Named: "false base" 
-1000 190 m 0
 2000 190 l 0
  Named: "n" 
-1000 306 m 0
 2000 306 l 0
  Named: "b" 
-1000 497 m 0
 2000 497 l 0
  Named: "h" 
-1000 506 m 0
 2000 506 l 0
  Named: "oeil" 
EndSplineSet
BeginChars: 65536 86

StartChar: slash
Encoding: 47 47 0
Width: 404
VWidth: 0
Flags: W
LayerCount: 2
Fore
SplineSet
351.63 330.74 m 5
 353.62 493.75 l 5
 348.365 493.75 l 5
 50.3799 163.125 l 5
 50.3799 0 l 5
 54.6152 0 l 5
 351.63 330.74 l 5
351.63 330.74 m 4
EndSplineSet
Validated: 524297
EndChar

StartChar: A
Encoding: 65 65 1
Width: 611
VWidth: 0
Flags: W
HStem: 0 21G<52.6875 169.072 456.633 558.312> 0 21G<52.6875 169.072 456.633 558.312> 109.26 116.505<169.072 274.072> 476.765 20G<52.6875 191.163> 476.765 20G<52.6875 191.163>
VStem: 52.6875 116.385<0 109.26 225.765 342.755>
LayerCount: 2
Fore
SplineSet
52.6875 496.765 m 1xb4
 167.062 496.765 l 1
 172.317 496.765 l 1
 558.312 87.1299 l 1
 558.312 0 l 1
 474.072 0 l 1
 378.702 109.375 l 1
 169.072 109.26 l 1
 169.072 0 l 1
 52.6875 0 l 1
 52.6875 496.765 l 1xb4
169.072 342.755 m 1
 169.072 225.765 l 1
 274.072 225.765 l 1
 169.072 342.755 l 1
169.072 342.755 m 0
EndSplineSet
Validated: 524289
EndChar

StartChar: B
Encoding: 66 66 2
Width: 639
VWidth: 0
Flags: W
HStem: -70.25 120.37<181.433 432.745> 186 120.255<181.688 435.027> 442.131 120.625<181.433 432.745>
VStem: 65.0674 116.601<-70.5049 -70.25 50.1201 186 306.255 442.131> 453.798 120.135<69.9746 167.124 325.128 422.282>
LayerCount: 2
Fore
SplineSet
385.693 562.756 m 6
 489.678 562.756 573.933 478.381 573.933 374.38 c 4
 573.933 324.846 554.812 279.73 523.562 246.135 c 5
 554.812 212.525 573.933 167.405 573.933 117.875 c 4
 573.933 13.8701 489.678 -70.5049 385.693 -70.5049 c 6
 181.433 -70.25 l 5
 181.433 -70.5049 l 5
 65.0674 -70.5049 l 5
 65.0674 562.756 l 5
 385.693 562.756 l 6
181.433 442.131 m 5
 181.433 430.256 l 5
 181.688 430.256 l 5
 181.688 306.255 l 5
 385.808 306.255 l 6
 423.367 306.311 453.818 336.8 453.818 374.38 c 5
 447.548 413.266 427.037 439.965 385.808 442.131 c 6
 181.433 442.131 l 5
181.688 186 m 5
 181.668 61.9951 l 5
 181.433 61.9951 l 5
 181.433 50.1201 l 5
 385.808 50.1201 l 6
 427.037 52.29 447.548 79.0059 453.798 117.875 c 5
 453.798 155.45 423.367 185.939 385.808 186 c 6
 181.688 186 l 5
181.688 186 m 4
EndSplineSet
Validated: 524289
EndChar

StartChar: C
Encoding: 67 67 3
Width: 651
VWidth: 0
Flags: W
HStem: 0 112.25<235.475 596.683> 390.18 112.32<235.948 596.683>
VStem: 54.3174 112.266<176.74 325.712>
LayerCount: 2
Fore
SplineSet
304.452 502.5 m 2
 596.683 502.109 l 1
 596.683 390.18 l 1
 303.827 390.18 l 2
 227.853 389.24 166.583 327.445 166.583 251.25 c 0
 166.583 174.845 228.183 112.854 304.452 112.25 c 2
 596.683 111.995 l 1
 596.683 0 l 1
 303.827 0 l 2
 165.897 0.939453 54.3174 113.09 54.3174 251.25 c 0
 54.3174 389.609 166.232 501.875 304.452 502.5 c 2
304.452 502.5 m 0
EndSplineSet
Validated: 524289
EndChar

StartChar: D
Encoding: 68 68 4
Width: 666
VWidth: 0
Flags: W
HStem: 0 112.125<178.197 423.048> 390.115 112.01<178.058 422.577>
VStem: 61.8076 116.39<112.125 390.115> 491.947 112.245<176.738 325.702>
LayerCount: 2
Fore
SplineSet
354.072 502.5 m 6
 492.297 501.875 604.192 389.61 604.192 251.25 c 4
 604.192 113.086 492.627 0.935547 354.697 0 c 6
 61.8076 0 l 5
 61.8076 502.125 l 5
 354.072 502.5 l 6
178.058 390.115 m 5
 178.197 112.125 l 5
 354.072 112.246 l 6
 430.322 112.851 491.947 174.841 491.947 251.25 c 4
 491.947 327.44 430.657 389.181 354.697 390.115 c 6
 178.058 390.115 l 5
178.058 390.115 m 4
EndSplineSet
Validated: 524289
EndChar

StartChar: E
Encoding: 69 69 5
Width: 677
VWidth: 0
Flags: W
HStem: 0 116.37<183.117 610.248> 190.12 116.25<183.117 610.248> 380.12 116.385<183.117 610.248>
VStem: 66.752 116.365<116.37 190.12 306.37 380.12>
LayerCount: 2
Fore
SplineSet
66.752 496.505 m 5
 610.248 496.505 l 5
 610.248 380.12 l 5
 183.117 380.12 l 5
 183.117 306.37 l 5
 610.248 306.37 l 5
 610.248 190.12 l 5
 183.117 190.12 l 5
 183.117 116.37 l 5
 610.248 116.37 l 5
 610.248 0 l 5
 66.752 0 l 5
 66.752 496.505 l 5
66.752 496.505 m 4
EndSplineSet
Validated: 524289
EndChar

StartChar: F
Encoding: 70 70 6
Width: 671
VWidth: 0
Flags: W
HStem: 0 21G<63.75 180.141> 0 21G<63.75 180.141> 190 116.37<180.141 607.25> 380.12 116.385<180.141 607.25>
VStem: 63.75 116.391<0 190 306.37 380.12>
LayerCount: 2
Fore
SplineSet
63.75 496.505 m 5xb8
 607.25 496.505 l 5
 607.25 380.12 l 5
 180.141 380.12 l 5
 180.141 306.37 l 5
 607.25 306.37 l 5
 607.25 190 l 5
 180.141 190 l 5
 180.141 0 l 5
 63.75 0 l 5
 63.75 496.505 l 5xb8
63.75 496.505 m 4
EndSplineSet
Validated: 524289
EndChar

StartChar: G
Encoding: 71 71 7
Width: 661
VWidth: 0
Flags: W
HStem: 0 112.246<240.401 485.381> 200.875 116.371<296.125 485.381> 390.25 112.056<240.881 601.495>
VStem: 59.25 112.245<176.741 325.714> 485.381 116.114<112.125 200.875>
LayerCount: 2
Fore
SplineSet
309.385 502.306 m 6
 601.495 502.306 l 5
 601.495 390.25 l 5
 308.74 390.25 l 6
 232.785 389.315 171.495 327.44 171.495 251.25 c 4
 171.495 174.841 233.115 112.871 309.365 112.246 c 6
 485.381 112.125 l 5
 485.381 200.875 l 5
 296.125 200.875 l 5
 296.125 317.246 l 5
 601.75 317.5 l 5
 601.495 0 l 5
 308.76 0 l 6
 170.811 0.955078 59.25 113.086 59.25 251.25 c 4
 59.25 389.61 171.165 501.695 309.385 502.306 c 6
309.385 502.306 m 4
EndSplineSet
Validated: 524289
EndChar

StartChar: H
Encoding: 72 72 8
Width: 677
VWidth: 0
Flags: W
HStem: 0 21G<66.7422 183.127 493.873 610.258> 0 21G<66.7422 183.127 493.873 610.258> 190.12 116.25<183.127 493.873> 476.505 20G<66.7422 183.127 493.873 610.258> 476.505 20G<66.7422 183.127 493.873 610.258>
VStem: 66.7422 116.385<0 190.12 306.37 496.505> 493.873 116.385<0 190.12 306.37 496.505>
LayerCount: 2
Fore
SplineSet
66.7422 496.505 m 1xb6
 183.127 496.505 l 1
 183.127 306.37 l 1
 493.873 306.37 l 1
 493.873 496.505 l 1
 610.258 496.505 l 1
 610.258 0 l 1
 493.873 0 l 1
 493.873 190.12 l 1
 183.127 190.12 l 1
 183.127 0 l 1
 66.7422 0 l 1
 66.7422 496.505 l 1xb6
66.7422 496.505 m 0
EndSplineSet
Validated: 524289
EndChar

StartChar: I
Encoding: 73 73 9
Width: 250
VWidth: 0
Flags: W
HStem: 0 21G<66.6973 183.303> 0 21G<66.6973 183.303> 476.485 20G<66.6973 183.077> 476.485 20G<66.6973 183.077>
VStem: 66.6973 116.605<0 496.485>
LayerCount: 2
Fore
SplineSet
66.6973 496.485 m 5xa8
 183.067 496.485 l 5
 183.303 0 l 5
 66.6973 0 l 5
 66.6973 496.485 l 5xa8
66.6973 496.485 m 4
EndSplineSet
Validated: 524289
EndChar

StartChar: J
Encoding: 74 74 10
Width: 605
VWidth: 0
Flags: W
HStem: 0 112.244<227.969 376.936> 474.255 20G<441.669 553.82>
VStem: 51.1797 112.325<181.612 249.489> 441.436 112.129<181.139 494.255>
LayerCount: 2
Fore
SplineSet
51.1797 250.114 m 5
 163.505 249.489 l 5
 164.445 173.515 226.24 112.244 302.43 112.244 c 4
 378.84 112.244 440.83 173.864 441.436 250.114 c 6
 441.689 494.255 l 5
 553.82 494.255 l 5
 553.564 249.489 l 6
 552.605 111.56 440.595 0 302.43 0 c 4
 164.07 0 51.7852 111.895 51.1797 250.114 c 5
51.1797 250.114 m 4
EndSplineSet
Validated: 524289
EndChar

StartChar: K
Encoding: 75 75 11
Width: 578
VWidth: 0
Flags: W
HStem: 0 21G<36.8799 174.525> 0 21G<36.8799 174.525> 473.75 20G<36.8799 153.25 432.286 454.5>
VStem: 36.8799 116.37<163.01 493.75>
LayerCount: 2
Fore
SplineSet
36.8799 493.75 m 1xb0
 153.25 493.75 l 1
 153.25 163.01 l 1
 237.88 257.245 l 1
 237.88 259.12 l 1
 239.615 259.12 l 1
 450.24 493.75 l 1
 454.5 493.75 l 1
 454.5 330.625 l 1
 316.63 177.635 l 1
 541.12 -71.5049 l 1
 541.12 -234.63 l 1
 536.88 -234.63 l 1
 241.49 94.2598 l 1
 156.49 0 l 1
 36.8799 0 l 1
 36.8799 493.75 l 1xb0
36.8799 493.75 m 0
EndSplineSet
Validated: 524289
EndChar

StartChar: L
Encoding: 76 76 12
Width: 643
VWidth: 0
Flags: W
HStem: 0 116.365<166.112 593.258> 476.5 20G<49.7422 166.112> 476.5 20G<49.7422 166.112>
VStem: 49.7422 116.37<116.365 496.5>
LayerCount: 2
Fore
SplineSet
49.7422 496.5 m 5xd0
 166.112 496.5 l 5
 166.112 116.365 l 5
 593.258 116.365 l 5
 593.258 0 l 5
 49.7422 0 l 5
 49.7422 496.5 l 5xd0
49.7422 496.5 m 4
EndSplineSet
Validated: 524289
EndChar

StartChar: M
Encoding: 77 77 13
Width: 679
VWidth: 0
Flags: W
HStem: 0 21G<66.835 183.199 495.8 612.165> 0 21G<66.835 183.199 495.8 612.165> 473.689 20G<66.835 204.328 471.876 612.165>
VStem: 66.835 116.364<0 330.665> 495.8 116.365<0 332.245>
LayerCount: 2
Fore
SplineSet
66.835 493.689 m 5xb8
 186.345 493.689 l 5
 333.26 330.295 l 5
 491.21 493.689 l 5
 612.165 493.689 l 5
 612.165 0 l 5
 495.8 0 l 5
 495.8 332.245 l 5
 334.59 165.335 l 5
 333.145 163.87 l 5
 331.795 165.45 l 5
 183.199 330.665 l 5
 183.199 0 l 5
 66.835 0 l 5
 66.835 493.689 l 5xb8
66.835 493.689 m 4
EndSplineSet
Validated: 524289
EndChar

StartChar: N
Encoding: 78 78 14
Width: 667
VWidth: 0
Flags: W
HStem: 0 21G<66.9951 183.385 462.416 600.005> 0 21G<66.9951 183.385 462.416 600.005> 473.75 20G<66.9951 204.592 483.635 600.005>
VStem: 66.9951 116.39<0 330.74> 483.635 116.37<163.125 493.75>
LayerCount: 2
Fore
SplineSet
66.9951 493.75 m 5xb8
 186.625 493.75 l 5
 483.635 163.125 l 5
 483.635 493.75 l 5
 600.005 493.75 l 5
 600.005 0 l 5
 480.375 0 l 5
 183.385 330.74 l 5
 183.385 0 l 5
 66.9951 0 l 5
 66.9951 493.75 l 5xb8
66.9951 493.75 m 4
EndSplineSet
Validated: 524289
EndChar

StartChar: O
Encoding: 79 79 15
Width: 611
VWidth: 0
Flags: W
HStem: 0.75 112.245<230.631 380.276> 391 112.25<230.631 380.276>
VStem: 54.3076 112.13<177.182 326.816> 444.562 112.13<177.182 326.816>
LayerCount: 2
Fore
SplineSet
305.442 503.25 m 4
 444.192 503.25 556.692 390.75 556.692 252 c 4
 556.692 113.25 444.192 0.75 305.442 0.75 c 4
 166.692 0.75 54.3076 113.25 54.3076 252 c 4
 54.3076 390.75 166.692 503.25 305.442 503.25 c 4
305.442 391 m 4
 228.667 391 166.438 328.775 166.438 252 c 4
 166.438 175.22 228.667 112.995 305.442 112.995 c 4
 382.217 112.995 444.562 175.22 444.562 252 c 4
 444.562 328.775 382.217 391 305.442 391 c 4
305.442 391 m 4
EndSplineSet
Validated: 524289
EndChar

StartChar: P
Encoding: 80 80 16
Width: 632
VWidth: 0
Flags: W
HStem: 0 21G<61.5684 178.188> 0 21G<61.5684 178.188> 124.025 120<178.188 429.338> 380.136 120.51<177.932 429.251>
VStem: 61.5684 116.619<0 124.025 244.025 380.136> 450.318 120.113<264.225 360.289>
LayerCount: 2
Fore
SplineSet
61.5684 500.646 m 5xbc
 382.193 500.646 l 6
 486.197 500.646 570.432 416.385 570.432 312.4 c 4
 570.432 208.436 486.252 124.221 382.307 124.141 c 5
 382.307 124.025 l 5
 178.188 124.025 l 5
 178.188 0 l 5
 61.5684 0 l 5
 61.5684 500.646 l 5xbc
450.318 312.4 m 5
 444.047 351.271 423.543 377.971 382.307 380.136 c 6
 177.932 380.136 l 5
 178.053 244.025 l 5
 382.193 244.275 l 6
 419.807 244.275 450.318 274.785 450.318 312.4 c 5
450.318 312.4 m 4
EndSplineSet
Validated: 524289
EndChar

StartChar: Q
Encoding: 81 81 17
Width: 634
VWidth: 0
Flags: W
HStem: 0 112.244<228.806 332.69> 390.255 112.245<228.806 378.453>
VStem: 52.5 112.125<176.433 326.068> 442.75 112.11<182.411 326.068>
LayerCount: 2
Fore
SplineSet
303.61 502.5 m 4
 442.36 502.5 554.86 390 554.86 251.25 c 4
 554.86 192.56 534.725 138.535 500.994 95.7598 c 5
 581.5 6.50488 l 5
 581.5 -156.62 l 5
 577.244 -156.62 l 5
 413.865 25.3691 l 5
 380.604 9.11914 343.145 0 303.61 0 c 4
 164.88 0 52.5 112.5 52.5 251.25 c 4
 52.5 390 164.88 502.5 303.61 502.5 c 4
303.61 390.255 m 4
 226.835 390.255 164.625 328.029 164.625 251.25 c 4
 164.625 174.475 226.835 112.244 303.61 112.244 c 4
 313.67 112.244 323.535 113.359 332.985 115.369 c 5
 280.25 174.119 l 5
 278.24 337.13 l 5
 283.494 337.13 l 5
 423.865 181.385 l 5
 435.84 201.895 442.75 225.779 442.75 251.25 c 4
 442.75 328.029 380.41 390.255 303.61 390.255 c 4
303.61 390.255 m 4
EndSplineSet
Validated: 524289
EndChar

StartChar: R
Encoding: 82 82 18
Width: 642
VWidth: 0
Flags: W
HStem: -0.625 21G<63.8125 180.438 428.831 578.188> -0.625 21G<63.8125 180.438 428.831 578.188> 124.12 120<180.438 347.701> 380.255 120.37<180.201 431.497>
VStem: 63.8125 116.504<0 124.12 244.12 380.255 500.625 500.88> 452.562 120.139<264.237 360.403>
LayerCount: 2
Fore
SplineSet
63.8125 500.88 m 5xbc
 180.201 500.88 l 5
 180.201 500.625 l 5
 384.438 500.88 l 6
 488.441 500.88 572.701 416.505 572.701 312.5 c 4
 572.701 237.97 529.477 173.515 466.688 143.005 c 5
 578.188 -0.625 l 5
 444.322 -0.625 l 5
 347.701 124.12 l 5
 180.438 124.12 l 5
 180.438 0 l 5
 63.8125 0 l 5
 63.8125 500.88 l 5xbc
180.201 380.255 m 5
 180.316 244.12 l 5
 384.438 244.375 l 6
 422.057 244.375 452.562 274.88 452.562 312.5 c 5
 446.292 351.385 425.807 378.085 384.576 380.255 c 6
 180.201 380.255 l 5
180.201 380.255 m 4
EndSplineSet
Validated: 524289
EndChar

StartChar: S
Encoding: 83 83 19
Width: 698
VWidth: 0
Flags: W
HStem: -70.25 120.371<105.867 501.05> 186.056 120.06<196.842 501.151> 442.11 120.625<196.934 592.117>
VStem: 55.748 120.119<327.328 421.435> 522.117 120.135<70.8078 164.917>
LayerCount: 2
Fore
SplineSet
243.992 562.735 m 6
 592.232 562.501 l 5
 592.117 442.11 l 5
 243.873 442.11 l 6
 202.643 439.945 176.021 412.735 175.867 374.375 c 4
 175.728 336 206.373 306.115 243.992 306.115 c 6
 454.127 306.115 l 6
 558.053 306.056 642.252 221.841 642.252 117.875 c 4
 642.252 13.8711 557.992 -70.5039 453.992 -70.5039 c 6
 105.748 -70.25 l 5
 105.867 50.1211 l 5
 454.107 50.1211 l 6
 495.357 52.2852 521.978 79.4961 522.117 117.875 c 4
 522.252 156.23 491.607 185.605 453.992 186 c 6
 243.873 186.056 l 6
 139.928 186.115 55.748 270.41 55.748 374.375 c 4
 55.748 478.36 139.987 562.735 243.992 562.735 c 6
243.992 562.735 m 4
EndSplineSet
Validated: 524321
EndChar

StartChar: T
Encoding: 84 84 20
Width: 635
VWidth: 0
Flags: W
HStem: 0 21G<260.87 378.115> 0 21G<260.87 378.115> 380.255 116.25<41.1602 260.87 378.115 593.84>
VStem: 260.87 117.245<0 380.255>
LayerCount: 2
Fore
SplineSet
41.1602 496.505 m 5xb0
 261.75 496.505 l 5
 593.84 496.505 l 5
 593.84 380.255 l 5
 378.115 380.255 l 5
 378.115 0 l 5
 260.87 0 l 5
 260.87 380.255 l 5
 41.1602 380.255 l 5
 41.1602 496.505 l 5xb0
41.1602 496.505 m 4
EndSplineSet
Validated: 524289
EndChar

StartChar: U
Encoding: 85 85 21
Width: 630
VWidth: 0
Flags: W
HStem: 0 112.25<240.537 382.484> 476.811 20G<63.5645 176.436 454.189 566.436> 476.811 20G<63.5645 176.436 454.189 566.436>
VStem: 63.5645 112.637<181.658 496.811> 454.189 112.246<181.616 496.811>
LayerCount: 2
Fore
SplineSet
454.189 496.811 m 5xd8
 566.436 496.811 l 5
 566.436 250.12 l 2
 566.436 111.895 453.564 0 315.186 0 c 0
 176.904 0 63.5645 112.014 63.5645 250.12 c 2
 63.5645 496.811 l 5
 176.436 496.811 l 5
 176.201 250.12 l 2
 176.129 173.962 238.881 112.25 315.186 112.25 c 1
 394.17 124.905 447.785 165.57 454.189 250.12 c 1
 454.189 496.811 l 5xd8
454.189 496.811 m 4
EndSplineSet
Validated: 524321
EndChar

StartChar: V
Encoding: 86 86 22
Width: 543
VWidth: 0
Flags: W
HStem: 0 21G<62.6895 200.328> 0 21G<62.6895 200.328> 476.75 20G<62.6895 179.061> 476.75 20G<62.6895 179.061 458.093 480.311>
VStem: 62.6895 116.371<162.984 496.75>
LayerCount: 2
Fore
SplineSet
62.6895 0 m 1xa8
 62.6895 496.75 l 1
 179.061 496.75 l 1
 179.061 162.984 l 1
 476.051 493.75 l 1
 480.311 493.75 l 1
 480.311 330.625 l 1
 182.301 0 l 1
 177.07 0 l 1
 62.6895 0 l 1xa8
62.6895 0 m 0
EndSplineSet
Validated: 524289
EndChar

StartChar: W
Encoding: 87 87 23
Width: 957
VWidth: 0
Flags: W
HStem: 0 21G<62.6895 200.346 476.695 614.352> 0 21G<62.6895 200.346 476.695 614.352> 475.75 20G<62.6895 179.076 458.219 593.061> 475.75 20G<62.6895 179.076 458.219 593.061 872.116 894.311>
VStem: 62.6895 116.387<163.01 495.75> 476.695 116.365<163.01 326.62>
LayerCount: 2
Fore
SplineSet
62.6895 495.75 m 1xac
 179.076 495.75 l 1
 179.076 163.01 l 1
 476.07 495.75 l 1
 593.061 495.75 l 1
 593.061 163.01 l 1
 890.076 493.75 l 1
 894.311 493.75 l 1
 894.311 330.625 l 1
 596.326 0 l 1
 476.695 0 l 1
 476.695 326.62 l 1
 182.32 0 l 1
 62.6895 0 l 1
 62.6895 495.75 l 1xac
62.6895 495.75 m 0
EndSplineSet
Validated: 524289
EndChar

StartChar: X
Encoding: 88 88 24
Width: 542
VWidth: 0
Flags: W
HStem: 467.64 20G<52.5625 219.657 322.365 489.438>
LayerCount: 2
Fore
SplineSet
52.5625 487.64 m 5
 207.562 487.64 l 5
 271.058 382.64 l 5
 334.438 487.64 l 5
 489.438 487.64 l 5
 349.062 253.38 l 5
 489.438 21 l 5
 332.188 21 l 5
 271.058 123.125 l 5
 209.808 21 l 5
 52.5625 21 l 5
 192.933 253.38 l 5
 52.5625 487.64 l 5
52.5625 487.64 m 4
EndSplineSet
Validated: 524289
EndChar

StartChar: Y
Encoding: 89 89 25
Width: 530
VWidth: 0
Flags: W
HStem: 462.62 20G<46.5625 213.635 316.343 483.438>
LayerCount: 2
Fore
SplineSet
46.5625 482.62 m 5
 201.562 482.62 l 5
 264.941 377.62 l 5
 328.438 482.62 l 5
 483.438 482.62 l 5
 203.827 16 l 5
 46.5625 16 l 5
 186.952 248.38 l 5
 46.5625 482.62 l 5
46.5625 482.62 m 4
EndSplineSet
Validated: 524289
EndChar

StartChar: Z
Encoding: 90 90 26
Width: 678
VWidth: 0
Flags: W
HStem: 15.7646 116.74<357.055 625.436> 365.375 116.39<52.5645 341.176>
LayerCount: 2
Fore
SplineSet
52.5645 481.765 m 5
 566.801 482.39 l 5
 357.055 132.505 l 5
 625.436 132.64 l 5
 625.436 16 l 5
 129.926 15.7646 l 5
 341.176 365.375 l 5
 52.5645 365.375 l 5
 52.5645 481.765 l 5
52.5645 481.765 m 4
EndSplineSet
Validated: 524289
EndChar

StartChar: x
Encoding: 120 120 27
Width: 731
VWidth: 0
Flags: W
HStem: 463.62 20G<52.0625 219.135 321.843 488.938 509.706 678.938>
LayerCount: 2
Fore
SplineSet
678.938 17 m 5
 523.938 17 l 5
 460.577 122 l 5
 397.062 17 l 5
 242.062 17 l 5
 521.691 483.62 l 5
 678.938 483.62 l 5
 538.566 251.255 l 5
 678.938 17 l 5
678.938 17 m 4
52.0625 483.62 m 5
 207.062 483.62 l 5
 270.441 378.62 l 5
 333.938 483.62 l 5
 488.938 483.62 l 5
 209.327 17 l 5
 52.0625 17 l 5
 192.452 249.38 l 5
 52.0625 483.62 l 5
52.0625 483.62 m 4
EndSplineSet
Validated: 524289
EndChar

StartChar: guillemotleft
Encoding: 171 171 28
Width: 644
VWidth: 0
Flags: W
LayerCount: 2
Fore
SplineSet
588.189 666.12 m 5
 593.445 666.12 l 5
 591.435 503.131 l 5
 367.935 254.245 l 5
 591.825 5.00586 l 5
 593.814 -158 l 5
 588.56 -158 l 5
 290.81 172.37 l 5
 290.185 172.37 l 5
 290.185 335.495 l 5
 588.189 666.12 l 5
588.189 666.12 m 4
348.189 666.12 m 5
 353.445 666.12 l 5
 351.435 503.131 l 5
 127.935 254.245 l 5
 351.825 5.00586 l 5
 353.814 -158 l 5
 348.56 -158 l 5
 50.8105 172.37 l 5
 50.1855 172.37 l 5
 50.1855 335.495 l 5
 348.189 666.12 l 5
348.189 666.12 m 4
EndSplineSet
Validated: 524289
EndChar

StartChar: guillemotright
Encoding: 187 187 29
Width: 652
VWidth: 0
Flags: W
LayerCount: 2
Fore
SplineSet
59.8105 666.12 m 5
 54.5547 666.12 l 5
 56.5654 503.131 l 5
 280.065 254.245 l 5
 56.1748 5.00586 l 5
 54.1855 -158 l 5
 59.4404 -158 l 5
 357.19 172.37 l 5
 357.815 172.37 l 5
 357.815 335.495 l 5
 59.8105 666.12 l 5
59.8105 666.12 m 4
299.811 666.12 m 5
 294.555 666.12 l 5
 296.565 503.131 l 5
 520.065 254.245 l 5
 296.175 5.00586 l 5
 294.186 -158 l 5
 299.44 -158 l 5
 597.189 172.37 l 5
 597.814 172.37 l 5
 597.814 335.495 l 5
 299.811 666.12 l 5
299.811 666.12 m 4
EndSplineSet
Validated: 524297
EndChar

StartChar: zero
Encoding: 48 48 30
Width: 611
VWidth: 0
Flags: W
HStem: 0 112.25<230.625 380.273> 390.255 112.245<230.625 380.273>
VStem: 54.3076 112.13<176.434 326.064> 444.562 112.13<176.434 326.064>
LayerCount: 2
Fore
SplineSet
305.442 502.5 m 4
 444.173 502.5 556.692 389.98 556.692 251.25 c 4
 556.692 112.5 444.173 0 305.442 0 c 4
 166.692 0 54.3076 112.5 54.3076 251.25 c 4
 54.3076 389.98 166.692 502.5 305.442 502.5 c 4
305.442 390.255 m 4
 228.643 390.255 166.438 328.029 166.438 251.25 c 4
 166.438 174.475 228.643 112.25 305.442 112.25 c 4
 382.218 112.25 444.562 174.475 444.562 251.25 c 4
 444.562 328.029 382.218 390.255 305.442 390.255 c 4
305.442 390.255 m 4
EndSplineSet
Validated: 524289
EndChar

StartChar: one
Encoding: 49 49 31
Width: 250
VWidth: 0
Flags: W
HStem: 0 21G<66.707 183.293> 0 21G<66.707 183.293> 476.505 20G<66.707 183.086> 476.505 20G<66.707 183.086>
VStem: 66.707 116.586<0 496.505>
LayerCount: 2
Fore
SplineSet
66.707 496.505 m 5xa8
 183.077 496.505 l 5
 183.293 0 l 5
 66.707 0 l 5
 66.707 496.505 l 5xa8
66.707 496.505 m 4
EndSplineSet
Validated: 524289
EndChar

StartChar: two
Encoding: 50 50 32
Width: 607
VWidth: 0
Flags: W
HStem: 0 118.005<219.615 550.375> 183.125 120<293.99 378.151> 439.234 120.391<75.96 378.052>
VStem: 399.125 120.12<324.459 418.566>
LayerCount: 2
Fore
SplineSet
331 559.86 m 6
 434.984 559.86 519.245 475.505 519.245 371.5 c 4
 519.245 267.535 435.064 183.32 331.12 183.24 c 5
 331.12 183.125 l 5
 293.99 183.125 l 5
 219.615 118.005 l 5
 550.375 118.005 l 5
 550.375 0 l 5
 56.625 0 l 5
 56.625 118.005 l 5
 199.245 246.5 l 5
 199.359 246.5 l 5
 262.74 303.125 l 5
 331 303.375 l 6
 368.62 303.375 399.26 333.125 399.125 371.5 c 4
 398.97 409.859 372.35 437.07 331.12 439.234 c 6
 75.96 439.234 l 5
 75.8252 559.625 l 5
 331 559.86 l 6
331 559.86 m 4
EndSplineSet
Validated: 524321
EndChar

StartChar: three
Encoding: 51 51 33
Width: 521
VWidth: 0
Flags: W
HStem: -13.248 120.39<64.3096 315.502> 243 120.258<104.309 317.795> 499.132 120.374<64.3096 315.502>
VStem: 336.575 120.115<126.986 224.138 382.119 479.283>
LayerCount: 2
Fore
SplineSet
268.45 619.757 m 6
 372.435 619.757 456.69 535.382 456.69 431.381 c 4
 456.69 381.847 437.57 336.731 406.32 303.137 c 5
 437.57 269.527 456.69 224.406 456.69 174.877 c 4
 456.69 70.8916 372.435 -13.4834 268.45 -13.4834 c 6
 64.3096 -13.248 l 5
 64.3096 107.142 l 5
 268.565 107.142 l 6
 309.795 109.312 330.305 136.007 336.575 174.877 c 5
 336.575 212.451 306.125 243.004 268.565 243.002 c 6
 104.309 243 l 5
 104.309 363.258 l 5
 268.565 363.256 l 6
 306.125 363.258 336.575 393.801 336.575 431.381 c 5
 330.305 470.267 309.795 496.967 268.565 499.132 c 6
 64.3096 499.132 l 5
 64.3096 619.506 l 5
 268.45 619.757 l 6
268.45 619.757 m 4
EndSplineSet
Validated: 524321
EndChar

StartChar: four
Encoding: 52 52 34
Width: 598
VWidth: 0
Flags: W
HStem: 0 21G<429.75 546.375> 0 21G<429.75 546.375> 164.766 117.99<214.635 429.75> 476.505 20G<429.75 546.13> 476.505 20G<429.75 546.13>
VStem: 429.75 116.37<0 164.766 282.756 496.505>
LayerCount: 2
Fore
SplineSet
259.38 565.391 m 5xb4
 424.635 565.391 l 5
 214.635 282.756 l 5
 429.75 282.756 l 5
 429.75 496.505 l 5
 546.12 496.505 l 5
 546.375 0 l 5
 429.75 0 l 5
 429.75 164.766 l 5
 51.625 164.766 l 5
 51.625 282.756 l 5
 259.38 565.391 l 5xb4
259.38 565.391 m 4
EndSplineSet
Validated: 524289
EndChar

StartChar: five
Encoding: 53 53 35
Width: 621
VWidth: 0
Flags: W
HStem: -13 120.391<58.8008 389.992> 243.505 120<305.93 390.092> 428.62 118.01<231.555 562.314>
VStem: 411.064 120.121<128.058 222.167>
LayerCount: 2
Fore
SplineSet
342.939 -13.2344 m 6
 58.6855 -13 l 5
 58.8008 107.391 l 5
 343.061 107.391 l 6
 384.291 109.56 410.91 136.766 411.064 175.125 c 4
 411.199 213.505 380.561 243.25 342.939 243.25 c 6
 274.68 243.505 l 5
 211.301 300.125 l 5
 211.186 300.125 l 5
 68.5645 428.62 l 5
 68.5645 546.63 l 5
 562.314 546.63 l 5
 562.314 428.62 l 5
 231.555 428.62 l 5
 305.93 363.505 l 5
 343.061 363.505 l 5
 343.061 363.385 l 5
 447.006 363.31 531.186 279.09 531.186 175.125 c 4
 531.186 71.1201 446.926 -13.2549 342.939 -13.2344 c 6
342.939 -13.2344 m 4
EndSplineSet
Validated: 524321
EndChar

StartChar: six
Encoding: 54 54 36
Width: 729
VWidth: 0
Flags: W
HStem: 0 120.485<199.253 529.749> 256.365 120.255<196.96 529.841> 512.5 120.625<199.253 450.445>
VStem: 58.0645 120.115<140.341 237.49 395.495 492.645> 550.814 120.121<141.057 235.166>
LayerCount: 2
Fore
SplineSet
482.689 -0.254883 m 2
 313.436 0 l 1
 246.305 -0.139648 l 2
 142.32 -0.139648 58.0645 84.2354 58.0645 188.24 c 0
 58.0645 237.771 77.1855 282.89 108.436 316.485 c 1
 77.1855 350.095 58.0645 395.215 58.0645 444.745 c 0
 58.0645 548.75 142.32 633.125 246.305 633.125 c 2
 450.445 632.87 l 1
 450.445 512.5 l 1
 246.189 512.5 l 2
 204.955 510.33 184.449 483.61 178.18 444.745 c 1
 178.18 407.165 208.631 376.681 246.189 376.62 c 2
 450.445 376.62 l 1
 450.445 376.5 l 1
 482.811 376.5 l 1
 482.811 376.365 l 1
 586.756 376.306 670.936 292.09 670.936 188.125 c 0
 670.936 84.1201 586.695 -0.254883 482.689 -0.254883 c 2
482.811 120.37 m 2
 524.039 122.535 550.66 149.745 550.814 188.125 c 0
 550.955 226.485 520.311 256.25 482.689 256.25 c 2
 380.564 256.365 l 1
 246.189 256.365 l 2
 208.631 256.306 178.18 225.82 178.18 188.24 c 1
 184.449 149.375 204.955 122.655 246.189 120.485 c 2
 450.445 120.485 l 1
 450.445 120.37 l 1
 482.811 120.37 l 2
482.811 120.37 m 0
EndSplineSet
Validated: 524321
EndChar

StartChar: seven
Encoding: 55 55 37
Width: 582
VWidth: 0
Flags: W
HStem: 0 21G<100.939 270.177> 0 21G<100.939 270.177> 466.64 122.34<44.125 382.875>
LayerCount: 2
Fore
SplineSet
258.189 0 m 1xa0
 100.939 0 l 1
 382.875 466.64 l 1
 44.125 466.64 l 1
 44.125 588.979 l 1
 537.875 588.979 l 1
 537.875 466.64 l 1
 258.189 0 l 1xa0
258.189 0 m 0
EndSplineSet
Validated: 524289
EndChar

StartChar: eight
Encoding: 56 56 38
Width: 672
VWidth: 0
Flags: W
HStem: -13 120.625<201.396 466.117> 243.505 120.256<203.411 468.373> 499.615 120.625<205.883 466.117>
VStem: 64.6816 119.686<128.312 224.604 382.657 478.943> 487.182 120.137<128.312 224.604 382.657 478.943>
LayerCount: 2
Fore
SplineSet
252.943 620.24 m 4
 388.312 620.085 283.688 619.81 419.057 620.24 c 4
 523.062 620.24 607.318 535.865 607.318 431.886 c 4
 607.318 382.351 588.178 337.235 556.928 303.62 c 5
 588.178 270.024 607.318 224.909 607.318 175.38 c 4
 607.318 71.375 523.062 -13 419.057 -13 c 6
 252.943 -13 l 6
 148.938 -13 64.6816 71.375 64.6816 175.38 c 4
 64.6816 224.909 83.8027 270.024 115.053 303.62 c 5
 83.8223 337.235 64.6816 382.351 64.6816 431.886 c 4
 64.6816 535.865 148.938 620.24 252.943 620.24 c 4
252.807 499.615 m 6
 211.578 497.45 185.307 470.22 184.818 431.886 c 4
 184.332 393.524 215.248 363.815 252.807 363.761 c 6
 419.193 363.761 l 6
 456.752 363.815 487.082 393.524 487.182 431.886 c 4
 487.297 470.22 460.422 497.45 419.193 499.615 c 6
 252.807 499.615 l 6
419.193 243.505 m 6
 253.863 243.505 l 6
 216.303 243.425 183.217 217.215 184.367 175.38 c 4
 185.502 133.524 211.578 109.796 252.807 107.625 c 6
 419.193 107.625 l 6
 460.422 109.796 487.047 137.524 487.182 175.38 c 4
 487.318 213.229 456.752 243.425 419.193 243.505 c 6
419.193 243.505 m 4
EndSplineSet
Validated: 524321
EndChar

StartChar: nine
Encoding: 57 57 39
Width: 738
VWidth: 0
Flags: W
HStem: -12.7676 120.371<83.0723 534.253> 243.485 120.255<203.659 536.54> 499.615 120.745<203.766 534.254>
VStem: 62.5645 120.135<384.947 479.048> 555.32 120.115<127.039 224.609 382.617 479.767>
LayerCount: 2
Fore
SplineSet
250.824 620.36 m 6
 420.064 620.125 l 5
 487.195 620.24 l 6
 591.2 620.24 675.436 535.865 675.436 431.865 c 4
 675.436 382.33 656.314 337.215 625.064 303.62 c 5
 656.314 270.006 675.436 224.891 675.436 175.36 c 4
 675.436 71.3555 591.197 -13.0605 487.195 -13 c 6
 83.0723 -12.7676 l 5
 83.0723 107.604 l 5
 487.311 107.605 l 6
 528.615 107.604 549.05 136.49 555.32 175.36 c 5
 555.32 212.936 524.87 243.426 487.311 243.485 c 6
 283.074 243.485 l 5
 283.074 243.62 l 5
 250.689 243.62 l 5
 250.689 243.74 l 5
 146.745 243.815 62.5645 328.035 62.5645 431.98 c 4
 62.5645 535.985 146.824 620.36 250.824 620.36 c 6
250.689 499.735 m 6
 209.46 497.565 182.84 470.36 182.699 431.98 c 4
 182.545 393.62 213.21 363.855 250.824 363.855 c 6
 352.955 363.74 l 5
 487.33 363.74 l 6
 524.891 363.815 555.32 394.285 555.32 431.865 c 5
 549.05 470.75 528.561 497.45 487.33 499.615 c 6
 283.074 499.615 l 5
 283.074 499.735 l 5
 250.689 499.735 l 6
250.689 499.735 m 4
EndSplineSet
Validated: 524321
EndChar

StartChar: Ccedilla
Encoding: 199 199 40
Width: 651
VWidth: 0
Flags: W
HStem: 0 111.994<235.462 323.692 457.308 596.683> 390.234 112.266<235.933 596.683>
VStem: 54.3174 112.25<176.74 325.72>
LayerCount: 2
Fore
SplineSet
304.438 502.5 m 6
 596.683 502.109 l 5
 596.683 390.234 l 5
 303.812 390.234 l 6
 227.837 389.3 166.567 327.444 166.567 251.25 c 4
 166.567 174.845 228.188 112.854 304.438 112.25 c 6
 596.683 111.994 l 5
 596.683 0 l 5
 457.308 0 l 5
 324.438 -171.641 l 5
 190.567 -171.641 l 5
 323.692 0 l 5
 303.812 0 l 6
 165.883 0.939453 54.3174 113.09 54.3174 251.25 c 4
 54.3174 389.609 166.213 501.875 304.438 502.5 c 6
304.438 502.5 m 4
EndSplineSet
Validated: 524289
EndChar

StartChar: Eacute
Encoding: 201 201 41
Width: 678
VWidth: 0
Flags: W
HStem: 0 116.365<183.627 610.758> 190.115 116.25<183.627 610.758> 380.115 116.385<183.627 610.758>
VStem: 67.2422 116.385<116.365 190.115 306.365 380.115>
LayerCount: 2
Fore
SplineSet
67.2422 496.5 m 5
 610.758 496.5 l 5
 610.758 380.115 l 5
 183.627 380.115 l 5
 183.627 306.365 l 5
 610.758 306.365 l 5
 610.758 190.115 l 5
 183.627 190.115 l 5
 183.627 116.365 l 5
 610.758 116.365 l 5
 610.758 0 l 5
 67.2422 0 l 5
 67.2422 496.5 l 5
67.2422 496.5 m 4
340.308 720.25 m 5
 473.942 720.25 l 5
 337.947 544.625 l 5
 204.058 544.625 l 5
 340.308 720.25 l 5
340.308 720.25 m 4
EndSplineSet
Validated: 524289
EndChar

StartChar: Aacute
Encoding: 193 193 42
Width: 609
VWidth: 0
Flags: W
HStem: 0 21G<51.6875 168.053 453.877 557.312> 0 21G<51.6875 168.053 453.877 557.312> 99.3545 116.505<168.053 273.053> 475.859 20G<51.6875 189.759> 475.859 20G<51.6875 189.759>
VStem: 51.6875 116.365<0 99.3545 215.859 332.85>
LayerCount: 2
Fore
SplineSet
190.338 719.47 m 5x24
 323.973 719.47 l 5
 187.978 543.845 l 5
 54.0879 543.845 l 5
 190.338 719.47 l 5x24
190.338 719.47 m 4
51.6875 495.859 m 5xb4
 166.062 495.859 l 5
 171.318 495.859 l 5
 557.312 77.2246 l 5
 557.312 0 l 5
 473.053 0 l 5
 377.683 99.4697 l 5
 168.053 99.3545 l 5
 168.053 0 l 5
 51.6875 0 l 5
 51.6875 495.859 l 5xb4
168.053 332.85 m 5
 168.053 215.859 l 5
 273.053 215.859 l 5
 168.053 332.85 l 5
168.053 332.85 m 4
EndSplineSet
Validated: 524289
EndChar

StartChar: Agrave
Encoding: 192 192 43
Width: 646
VWidth: 0
Flags: W
HStem: 0 21G<138.518 254.883 540.707 644.143> 0 21G<138.518 254.883 540.707 644.143> 99.3545 116.505<254.883 359.883> 475.859 20G<138.518 276.589> 475.859 20G<138.518 276.589>
VStem: 138.518 116.365<0 99.3545 215.859 332.85>
LayerCount: 2
Fore
SplineSet
135.492 719.47 m 1x24
 1.85742 719.47 l 1
 137.853 543.845 l 1
 271.742 543.845 l 1
 135.492 719.47 l 1x24
135.492 719.47 m 0
138.518 495.859 m 1xb4
 252.893 495.859 l 1
 258.148 495.859 l 1
 644.143 77.2246 l 1
 644.143 0 l 1
 559.883 0 l 1
 464.513 99.4697 l 1
 254.883 99.3545 l 1
 254.883 0 l 1
 138.518 0 l 1
 138.518 495.859 l 1xb4
254.883 332.85 m 1
 254.883 215.859 l 1
 359.883 215.859 l 1
 254.883 332.85 l 1
254.883 332.85 m 0
EndSplineSet
Validated: 524289
EndChar

StartChar: Oacute
Encoding: 211 211 44
Width: 611
VWidth: 0
Flags: W
HStem: 0 112.245<230.629 380.273> 390.255 112.245<230.629 380.273>
VStem: 54.3076 112.13<176.432 326.067> 444.562 112.13<176.432 326.067>
LayerCount: 2
Fore
SplineSet
305.442 502.5 m 4
 444.172 502.5 556.692 390 556.692 251.25 c 4
 556.692 112.5 444.172 0 305.442 0 c 4
 166.692 0 54.3076 112.5 54.3076 251.25 c 4
 54.3076 390 166.692 502.5 305.442 502.5 c 4
305.442 390.255 m 4
 228.662 390.255 166.438 328.024 166.438 251.25 c 4
 166.438 174.47 228.662 112.245 305.442 112.245 c 4
 382.218 112.245 444.562 174.47 444.562 251.25 c 4
 444.562 328.024 382.218 390.255 305.442 390.255 c 4
305.442 390.255 m 4
306.808 726.425 m 5
 440.442 726.425 l 5
 304.447 550.8 l 5
 170.558 550.8 l 5
 306.808 726.425 l 5
306.808 726.425 m 4
EndSplineSet
Validated: 524289
EndChar

StartChar: Ograve
Encoding: 210 210 45
Width: 611
VWidth: 0
Flags: W
HStem: 0 112.245<230.727 380.371> 390.255 112.245<230.727 380.371>
VStem: 54.3076 112.13<176.432 326.067> 444.562 112.13<176.432 326.067>
LayerCount: 2
Fore
SplineSet
305.558 502.5 m 4
 166.828 502.5 54.3076 390 54.3076 251.25 c 4
 54.3076 112.5 166.828 0 305.558 0 c 4
 444.308 0 556.692 112.5 556.692 251.25 c 4
 556.692 390 444.308 502.5 305.558 502.5 c 4
305.558 390.255 m 4
 382.338 390.255 444.562 328.024 444.562 251.25 c 4
 444.562 174.47 382.338 112.245 305.558 112.245 c 4
 228.782 112.245 166.438 174.47 166.438 251.25 c 4
 166.438 328.024 228.782 390.255 305.558 390.255 c 4
305.558 390.255 m 4
304.192 726.425 m 5
 170.558 726.425 l 5
 306.553 550.8 l 5
 440.442 550.8 l 5
 304.192 726.425 l 5
304.192 726.425 m 4
EndSplineSet
Validated: 524297
EndChar

StartChar: Uacute
Encoding: 218 218 46
Width: 630
VWidth: 0
Flags: W
HStem: 0 112.25<240.528 382.477> 475.811 20G<63.5625 176.438 454.188 566.438> 475.811 20G<63.5625 176.438 454.188 566.438>
VStem: 63.5625 112.62<181.658 495.811> 454.188 112.25<181.616 495.811>
LayerCount: 2
Fore
SplineSet
316.297 727.15 m 1x98
 449.933 727.15 l 1
 313.938 551.525 l 1
 180.047 551.525 l 1
 316.297 727.15 l 1x98
316.297 727.15 m 0
454.188 495.811 m 5xd8
 566.438 495.811 l 5
 566.438 250.12 l 2
 566.438 111.895 453.547 0 315.188 0 c 0
 176.902 0 63.5625 112.014 63.5625 250.12 c 2
 63.5625 495.811 l 5
 176.438 495.811 l 5
 176.183 250.12 l 2
 176.104 173.962 238.857 112.25 315.188 112.25 c 1
 394.152 124.905 447.783 165.57 454.188 250.12 c 1
 454.188 495.811 l 5xd8
454.188 495.811 m 4
EndSplineSet
Validated: 524321
EndChar

StartChar: Ugrave
Encoding: 217 217 47
Width: 630
VWidth: 0
Flags: W
HStem: 0 112.25<247.523 389.472>
VStem: 63.5625 112.25<181.616 250.12> 453.817 112.62<181.658 250.12>
LayerCount: 2
Fore
SplineSet
313.703 727.15 m 1
 180.067 727.15 l 1
 316.062 551.525 l 1
 449.953 551.525 l 1
 313.703 727.15 l 1
313.703 727.15 m 0
175.812 495.811 m 5
 63.5625 495.811 l 5
 63.5625 250.12 l 2
 63.5625 111.895 176.453 0 314.812 0 c 0
 453.098 0 566.438 112.014 566.438 250.12 c 2
 566.438 495.811 l 5
 453.562 495.811 l 5
 453.817 250.12 l 2
 453.896 173.962 391.143 112.25 314.812 112.25 c 1
 235.848 124.905 182.217 165.57 175.812 250.12 c 1
 175.812 495.811 l 5
175.812 495.811 m 4
EndSplineSet
Validated: 524329
EndChar

StartChar: Udieresis
Encoding: 220 220 48
Width: 630
VWidth: 0
Flags: W
HStem: 16 112.245<240.533 379.492> 552.275 116.365<129.845 264.335 365.664 500.154>
VStem: 63.5547 112.635<197.653 505.806> 129.845 134.49<552.275 668.641> 365.664 134.49<552.275 668.641> 454.18 112.266<197.611 505.806>
LayerCount: 2
Fore
SplineSet
365.664 552.275 m 1xc8
 365.664 668.641 l 1
 500.154 668.875 l 1
 500.154 552.275 l 1
 365.664 552.275 l 1xc8
365.664 552.275 m 0
129.845 552.275 m 1xd0
 129.845 668.641 l 1
 264.335 668.875 l 1
 264.335 552.275 l 1
 129.845 552.275 l 1xd0
129.845 552.275 m 0
454.18 505.806 m 1xe4
 566.445 505.806 l 1
 566.445 266.115 l 2
 566.445 127.89 453.555 16 315.195 16 c 0
 176.895 16 63.5547 128.009 63.5547 266.115 c 2
 63.5547 505.806 l 1
 176.445 505.806 l 1
 176.189 266.115 l 2
 176.108 189.977 238.869 128.245 315.195 128.245 c 1
 394.16 140.92 447.774 181.565 454.18 266.115 c 1
 454.18 505.806 l 1xe4
454.18 505.806 m 0
EndSplineSet
Validated: 524321
EndChar

StartChar: OE
Encoding: 338 338 49
Width: 1053
VWidth: 0
Flags: W
HStem: 9.37988 112.245<236.318 384.629> 16 116.386<565.875 993.006> 206.135 116.25<565.875 993.006> 399.636 112.244<236.318 384.633 565.875 993.006>
VStem: 59.9941 112.131<185.812 335.447>
LayerCount: 2
Fore
SplineSet
449.506 512.505 m 5xb8
 993.006 512.505 l 5
 993.006 396.136 l 5
 565.875 396.136 l 5
 565.875 322.385 l 5
 993.006 322.385 l 5
 993.006 206.135 l 5
 565.875 206.135 l 5
 565.875 132.386 l 5
 993.006 132.386 l 5
 993.006 16 l 5
 449.506 16 l 5x78
 449.506 50.8857 l 5
 409.82 24.6553 362.24 9.37988 311.131 9.37988 c 4
 172.381 9.37988 59.9941 121.88 59.9941 260.63 c 4
 59.9941 399.38 172.381 511.88 311.131 511.88 c 4
 362.26 511.88 409.82 496.49 449.506 470.261 c 5
 449.506 512.505 l 5xb8
311.131 399.636 m 4
 234.35 399.636 172.125 337.405 172.125 260.63 c 4
 172.125 183.851 234.35 121.625 311.131 121.625 c 4xb8
 383.1 121.625 442.359 176.275 449.506 246.37 c 5
 449.506 274.75 l 5
 442.359 344.851 383.1 399.636 311.131 399.636 c 4
311.131 399.636 m 4
EndSplineSet
Validated: 524289
EndChar

StartChar: oe
Encoding: 339 339 50
Width: 1053
VWidth: 0
Flags: W
HStem: 9.37988 112.245<236.318 384.629> 16 116.386<565.875 993.006> 206.135 116.25<565.875 993.006> 399.636 112.244<236.318 384.633 565.875 993.006>
VStem: 59.9941 112.131<185.812 335.447>
LayerCount: 2
Fore
SplineSet
449.506 512.505 m 5xb8
 993.006 512.505 l 5
 993.006 396.136 l 5
 565.875 396.136 l 5
 565.875 322.385 l 5
 993.006 322.385 l 5
 993.006 206.135 l 5
 565.875 206.135 l 5
 565.875 132.386 l 5
 993.006 132.386 l 5
 993.006 16 l 5
 449.506 16 l 5x78
 449.506 50.8857 l 5
 409.82 24.6553 362.24 9.37988 311.131 9.37988 c 4
 172.381 9.37988 59.9941 121.88 59.9941 260.63 c 4
 59.9941 399.38 172.381 511.88 311.131 511.88 c 4
 362.26 511.88 409.82 496.49 449.506 470.261 c 5
 449.506 512.505 l 5xb8
311.131 399.636 m 4
 234.35 399.636 172.125 337.405 172.125 260.63 c 4
 172.125 183.851 234.35 121.625 311.131 121.625 c 4xb8
 383.1 121.625 442.359 176.275 449.506 246.37 c 5
 449.506 274.75 l 5
 442.359 344.851 383.1 399.636 311.131 399.636 c 4
311.131 399.636 m 4
EndSplineSet
Validated: 524289
EndChar

StartChar: percent
Encoding: 37 37 51
Width: 1538
VWidth: 0
Flags: W
HStem: 0 21.3701G<255.75 372.994 581.119 718.701 996.375 1112.74 1398.57 1502> 0 21.3701G<255.75 372.994 581.119 718.701 996.375 1112.74 1398.57 1502> 99.7451 116.505<1112.74 1217.74> 380.25 116.25<36 255.75 372.994 581.119>
VStem: 255.75 117.244<0 380.25> 581.119 116.366<164.375 380.25 496.5 497.125> 996.375 116.364<0.370117 99.7451 216.25 329.375>
LayerCount: 2
Fore
SplineSet
996.375 497.245 m 5xbe
 1116 497.245 l 5
 1502 77.6152 l 5
 1502 0.370117 l 5
 1417.74 0.370117 l 5
 1322.37 99.8604 l 5
 1112.74 99.7451 l 5
 1112.74 0.370117 l 5
 996.375 0.370117 l 5
 996.375 329.375 l 5
 700.75 0 l 5
 581.119 0 l 5
 581.119 380.25 l 5
 372.994 380.25 l 5
 372.994 0 l 5
 255.75 0 l 5
 255.75 380.25 l 5
 36 380.25 l 5
 36 496.5 l 5
 581.119 496.5 l 5
 581.119 497.125 l 5
 697.485 497.125 l 5
 697.485 164.375 l 5
 994.5 497.125 l 5
 996.375 497.125 l 5
 996.375 497.245 l 5xbe
1112.74 333.24 m 5
 1112.74 216.25 l 5
 1217.74 216.25 l 5
 1112.74 333.24 l 5
1112.74 333.24 m 4
EndSplineSet
Validated: 524289
EndChar

StartChar: question
Encoding: 63 63 52
Width: 495
VWidth: 0
Flags: W
HStem: 0 116.37<52.1113 169.611> 287.58 119.865<187.246 302.656> 543.575 120.625<51.3701 302.549>
VStem: 52.7559 116.619<0 116.37 165.12 287.58> 323.615 120.135<428.784 522.891>
LayerCount: 2
Fore
SplineSet
255.49 664.181 m 5
 255.49 664.2 l 5
 359.491 664.2 443.75 579.825 443.75 475.825 c 4
 443.75 371.86 359.57 287.641 255.625 287.58 c 6
 169.121 287.58 l 5
 169.375 165.12 l 5
 52.7559 165.12 l 5
 52.7559 287.7 l 5
 52.9902 287.7 l 5
 187.246 407.445 l 5
 255.49 407.7 l 6
 293.105 407.7 323.771 437.445 323.615 475.825 c 4
 323.476 514.181 296.855 541.41 255.625 543.575 c 6
 51.3701 543.575 l 5
 51.25 663.95 l 5
 255.49 664.181 l 5
169.611 116.625 m 5
 169.611 0 l 5
 52.1113 0 l 5
 52.1113 116.37 l 5
 169.611 116.625 l 5
169.611 116.625 m 4
EndSplineSet
Validated: 524321
EndChar

StartChar: exclam
Encoding: 33 33 53
Width: 253
VWidth: 0
Flags: W
HStem: 0 116.37<67.75 185.25>
VStem: 68.375 116.271<0 116.37 165.12 509.61>
LayerCount: 2
Fore
SplineSet
184.646 629.355 m 5
 184.646 165.12 l 1
 68.375 165.12 l 1
 68.6104 509.61 l 5
 184.646 629.355 l 5
185.25 116.62 m 1
 185.25 0 l 1
 67.75 0 l 1
 67.75 116.37 l 1
 185.25 116.62 l 1
185.25 116.62 m 0
EndSplineSet
Validated: 524289
EndChar

StartChar: numbersign
Encoding: 35 35 54
Width: 496
VWidth: 0
Flags: W
HStem: -177 116.385<52.6299 170.13> 295.51 119.865<187.765 303.156> 551.505 120.375<51.8848 303.064>
VStem: 53.2549 116.62<-177 -60.6152 -11.8652 295.51> 324.13 120.12<436.713 530.82>
LayerCount: 2
Fore
SplineSet
256.005 672.13 m 2
 360.01 672.13 444.25 587.755 444.25 483.755 c 0
 444.25 379.789 360.069 295.569 256.125 295.51 c 2
 169.64 295.51 l 1
 169.875 -11.8652 l 1
 53.2549 -11.8652 l 1
 53.2549 295.63 l 1
 53.5049 295.63 l 1
 187.765 415.375 l 1
 256.005 415.63 l 2
 293.625 415.63 324.27 445.375 324.13 483.755 c 0
 323.995 522.114 297.375 549.34 256.125 551.505 c 2
 51.8848 551.505 l 1
 51.75 671.88 l 1
 256.005 672.13 l 2
170.13 -60.3809 m 1
 170.13 -177 l 1
 52.6299 -177 l 1
 52.6299 -60.6152 l 1
 170.13 -60.3809 l 1
170.13 -60.3809 m 0
EndSplineSet
Validated: 524321
EndChar

StartChar: hyphen
Encoding: 45 45 55
Width: 559
VWidth: 0
Flags: W
HStem: 190 116.37<31.248 527.752>
LayerCount: 2
Fore
SplineSet
31.248 190 m 5
 31.248 306.37 l 5
 527.752 306.605 l 5
 527.752 190 l 5
 31.248 190 l 5
31.248 190 m 4
EndSplineSet
Validated: 524289
EndChar

StartChar: underscore
Encoding: 95 95 56
Width: 551
VWidth: 0
Flags: W
HStem: 0 116.37<27.248 523.752>
LayerCount: 2
Fore
SplineSet
27.248 0 m 5
 27.248 116.37 l 5
 523.752 116.605 l 5
 523.752 0 l 5
 27.248 0 l 5
27.248 0 m 4
EndSplineSet
Validated: 524289
EndChar

StartChar: dollar
Encoding: 36 36 57
Width: 911
VWidth: 0
Flags: WO
HStem: 16 120.625<200.904 705.624> 272.485 120.255<202.919 707.881> 528.615 120.625<205.383 705.624>
VStem: 64.1904 119.689<157.301 253.585 411.638 507.931> 726.69 120.119<157.301 253.585 411.638 507.931>
LayerCount: 2
Fore
SplineSet
252.435 649.24 m 4
 387.825 649.065 523.195 648.81 658.565 649.24 c 4
 762.57 649.24 846.81 564.865 846.81 460.865 c 4
 846.81 411.33 827.686 366.216 796.436 332.62 c 5
 827.686 299.005 846.81 253.891 846.81 204.36 c 4
 846.81 100.375 762.57 16 658.565 16 c 6
 252.435 16 l 6
 148.43 16 64.1904 100.375 64.1904 204.36 c 4
 64.1904 253.891 83.3105 299.005 114.561 332.62 c 5
 83.3105 366.216 64.1904 411.33 64.1904 460.865 c 4
 64.1904 564.865 148.45 649.24 252.435 649.24 c 4
252.315 528.615 m 6
 211.085 526.45 184.815 499.22 184.33 460.865 c 4
 183.82 422.525 214.76 392.815 252.315 392.74 c 6
 658.685 392.74 l 6
 696.26 392.815 726.595 422.525 726.69 460.865 c 4
 726.81 499.22 699.935 526.45 658.685 528.615 c 6
 252.315 528.615 l 6
658.685 272.485 m 6
 253.37 272.485 l 6
 215.811 272.425 182.725 246.216 183.88 204.36 c 4
 185.01 162.525 211.085 138.79 252.315 136.625 c 6
 658.685 136.625 l 6
 699.935 138.79 726.555 166.505 726.69 204.36 c 4
 726.83 242.21 696.24 272.425 658.685 272.485 c 6
658.685 272.485 m 4
EndSplineSet
Validated: 524321
EndChar

StartChar: k
Encoding: 107 107 58
Width: 548
VWidth: 0
Flags: W
VStem: 65.3076 116.385<179.01 509.75>
LayerCount: 2
Fore
SplineSet
65.3076 509.75 m 5
 181.692 509.75 l 5
 181.692 179.01 l 5
 478.688 509.75 l 5
 482.692 509.75 l 5
 482.692 346.375 l 5
 361.812 212.25 l 5
 482.692 78.1299 l 5
 482.692 -89.25 l 5
 289.192 126.255 l 5
 289.058 131.625 l 5
 184.938 16 l 5
 65.3076 16 l 5
 65.3076 509.75 l 5
65.3076 509.75 m 4
EndSplineSet
Validated: 524289
EndChar

StartChar: c
Encoding: 99 99 59
Width: 841
VWidth: 0
Flags: W
HStem: 0 112.385<234.197 787.942> 390.314 111.95<234.671 787.942>
VStem: 53.0576 112.245<176.883 325.849>
LayerCount: 2
Fore
SplineSet
303.173 502.64 m 1
 303.173 502.265 l 1
 787.942 502.265 l 1
 787.942 390.314 l 1
 302.548 390.314 l 2
 226.593 389.375 165.303 327.579 165.303 251.39 c 0
 165.303 174.979 226.923 112.989 303.173 112.385 c 2
 787.942 112.13 l 1
 787.942 0 l 1
 302.548 0 l 1
 302.548 0.254883 l 1
 164.618 1.20996 53.0576 113.225 53.0576 251.39 c 0
 53.0576 389.745 164.953 502.029 303.173 502.64 c 1
303.173 502.64 m 0
EndSplineSet
Validated: 524289
EndChar

StartChar: backslash
Encoding: 92 92 60
Width: 400
VWidth: 0
Flags: W
HStem: 0 21G<329.424 351.62> 0 21G<329.424 351.62> 473.75 20G<48.3799 71.6603>
VStem: 50.3701 301.25
LayerCount: 2
Fore
SplineSet
50.3701 330.74 m 5xb0
 48.3799 493.75 l 5
 53.6348 493.75 l 5
 351.62 163.125 l 5
 351.62 0 l 5
 347.385 0 l 5
 50.3701 330.74 l 5xb0
50.3701 330.74 m 4
EndSplineSet
Validated: 524289
EndChar

StartChar: q
Encoding: 113 113 61
Width: 1557
VWidth: 0
Flags: W
HStem: -282.87 112.245<753.227 895.021> 172.625 116.385<1082.62 1509.75> 190.005 112.245<223.565 327.454> 362.76 116.25<1082.62 1509.75> 552.76 116.365<1082.62 1509.75> 580.26 112.245<223.682 373.069>
VStem: 47.25 112.125<366.438 516.073> 437.5 112.109<372.405 516.073> 576.115 112.635<-101.212 33.3848 196.625 197> 966.25 116.369<-101.255 172.625 289.01 362.76 479.01 552.76>
LayerCount: 2
Fore
SplineSet
298.381 692.505 m 2xb7c0
 298.359 692.505 l 2xb7c0
 437.109 692.505 549.609 580.005 549.609 441.255 c 0
 549.609 382.564 529.475 328.52 495.744 285.75 c 1
 576.115 196.625 l 1
 576.115 197 l 1
 688.984 197 l 1
 688.75 -32.75 l 2
 689.494 -108.885 751.426 -170.625 827.756 -170.625 c 1
 906.721 -157.945 960.336 -117.3 966.74 -32.75 c 1
 966.74 172.625 l 1
 966.25 172.625 l 1
 966.25 669.125 l 1
 1509.75 669.125 l 1
 1509.75 552.76 l 1
 1082.62 552.76 l 1
 1082.62 479.01 l 1
 1509.75 479.01 l 1
 1509.75 362.76 l 1
 1082.62 362.76 l 1
 1082.62 289.01 l 1
 1509.75 289.01 l 1
 1509.75 172.625 l 1
 1079.01 172.625 l 1xdbc0
 1079.01 -32.75 l 2
 1078.38 -170.976 966.115 -282.87 827.756 -282.87 c 0
 689.455 -282.87 576.875 -170.855 576.115 -32.75 c 2
 576.115 33.3848 l 1
 571.994 33.3848 l 1
 408.615 215.375 l 1
 375.355 199.11 337.891 190.005 298.381 190.005 c 0
 159.631 190.005 47.25 302.505 47.25 441.255 c 0
 47.25 580.005 159.631 692.505 298.381 692.505 c 2xb7c0
298.381 580.26 m 0
 221.586 580.26 159.375 518.035 159.375 441.255 c 0
 159.375 364.479 221.586 302.25 298.381 302.25 c 0
 308.42 302.25 318.301 303.345 327.756 305.375 c 1
 275 364.125 l 1
 272.99 527.135 l 1
 278.244 527.135 l 1
 418.615 371.375 l 1
 430.586 391.899 437.5 415.785 437.5 441.255 c 0
 437.5 518.035 375.16 580.26 298.381 580.26 c 0
298.381 580.26 m 0
EndSplineSet
Validated: 524289
EndChar

StartChar: a
Encoding: 97 97 62
Width: 595
VWidth: 0
Flags: W
LayerCount: 2
Fore
SplineSet
550.312 496.765 m 1
 435.938 496.765 l 1
 430.683 496.765 l 1
 44.6875 87.1299 l 1
 44.6875 0 l 1
 128.928 0 l 1
 224.298 109.375 l 1
 433.928 109.26 l 1
 433.928 0 l 1
 550.312 0 l 1
 550.312 496.765 l 1
433.928 342.755 m 1
 433.928 225.765 l 1
 328.928 225.765 l 1
 433.928 342.755 l 1
433.928 342.755 m 0
EndSplineSet
Validated: 524297
EndChar

StartChar: b
Encoding: 98 98 63
Width: 639
VWidth: 0
Flags: W
HStem: -70.25 120.37<181.433 432.745> 186 120.255<181.688 435.027> 442.131 120.625<181.433 432.745>
VStem: 65.0674 116.601<-70.5049 -70.25 50.1201 186 306.255 442.131> 453.798 120.135<69.9746 167.124 325.128 422.282>
LayerCount: 2
Fore
SplineSet
385.693 562.756 m 6
 489.678 562.756 573.933 478.381 573.933 374.38 c 4
 573.933 324.846 554.812 279.73 523.562 246.135 c 5
 554.812 212.525 573.933 167.405 573.933 117.875 c 4
 573.933 13.8701 489.678 -70.5049 385.693 -70.5049 c 6
 181.433 -70.25 l 5
 181.433 -70.5049 l 5
 65.0674 -70.5049 l 5
 65.0674 562.756 l 5
 385.693 562.756 l 6
181.433 442.131 m 5
 181.433 430.256 l 5
 181.688 430.256 l 5
 181.688 306.255 l 5
 385.808 306.255 l 6
 423.367 306.311 453.818 336.8 453.818 374.38 c 5
 447.548 413.266 427.037 439.965 385.808 442.131 c 6
 181.433 442.131 l 5
181.688 186 m 5
 181.668 61.9951 l 5
 181.433 61.9951 l 5
 181.433 50.1201 l 5
 385.808 50.1201 l 6
 427.037 52.29 447.548 79.0059 453.798 117.875 c 5
 453.798 155.45 423.367 185.939 385.808 186 c 6
 181.688 186 l 5
181.688 186 m 4
EndSplineSet
Validated: 524289
EndChar

StartChar: d
Encoding: 100 100 64
Width: 666
VWidth: 0
Flags: W
HStem: 0 112.125<178.197 423.048> 390.115 112.01<178.058 422.577>
VStem: 61.8076 116.39<112.125 390.115> 491.947 112.245<176.738 325.702>
LayerCount: 2
Fore
SplineSet
354.072 502.5 m 6
 492.297 501.875 604.192 389.61 604.192 251.25 c 4
 604.192 113.086 492.627 0.935547 354.697 0 c 6
 61.8076 0 l 5
 61.8076 502.125 l 5
 354.072 502.5 l 6
178.058 390.115 m 5
 178.197 112.125 l 5
 354.072 112.246 l 6
 430.322 112.851 491.947 174.841 491.947 251.25 c 4
 491.947 327.44 430.657 389.181 354.697 390.115 c 6
 178.058 390.115 l 5
178.058 390.115 m 4
EndSplineSet
Validated: 524289
EndChar

StartChar: e
Encoding: 101 101 65
Width: 677
VWidth: 0
Flags: W
HStem: 0 116.37<183.117 610.248> 190.12 116.25<183.117 610.248> 380.12 116.385<183.117 610.248>
VStem: 66.752 116.365<116.37 190.12 306.37 380.12>
LayerCount: 2
Fore
SplineSet
66.752 496.505 m 5
 610.248 496.505 l 5
 610.248 380.12 l 5
 183.117 380.12 l 5
 183.117 306.37 l 5
 610.248 306.37 l 5
 610.248 190.12 l 5
 183.117 190.12 l 5
 183.117 116.37 l 5
 610.248 116.37 l 5
 610.248 0 l 5
 66.752 0 l 5
 66.752 496.505 l 5
66.752 496.505 m 4
EndSplineSet
Validated: 524289
EndChar

StartChar: f
Encoding: 102 102 66
Width: 671
VWidth: 0
Flags: W
HStem: 0 21G<63.75 180.141> 0 21G<63.75 180.141> 190 116.37<180.141 607.25> 380.12 116.385<180.141 607.25>
VStem: 63.75 116.391<0 190 306.37 380.12>
LayerCount: 2
Fore
SplineSet
63.75 496.505 m 5xb8
 607.25 496.505 l 5
 607.25 380.12 l 5
 180.141 380.12 l 5
 180.141 306.37 l 5
 607.25 306.37 l 5
 607.25 190 l 5
 180.141 190 l 5
 180.141 0 l 5
 63.75 0 l 5
 63.75 496.505 l 5xb8
63.75 496.505 m 4
EndSplineSet
Validated: 524289
EndChar

StartChar: g
Encoding: 103 103 67
Width: 661
VWidth: 0
Flags: W
HStem: 0 112.246<240.401 485.381> 200.875 116.371<296.125 485.381> 390.25 112.056<240.881 601.495>
VStem: 59.25 112.245<176.741 325.714> 485.381 116.114<112.125 200.875>
LayerCount: 2
Fore
SplineSet
309.385 502.306 m 6
 601.495 502.306 l 5
 601.495 390.25 l 5
 308.74 390.25 l 6
 232.785 389.315 171.495 327.44 171.495 251.25 c 4
 171.495 174.841 233.115 112.871 309.365 112.246 c 6
 485.381 112.125 l 5
 485.381 200.875 l 5
 296.125 200.875 l 5
 296.125 317.246 l 5
 601.75 317.5 l 5
 601.495 0 l 5
 308.76 0 l 6
 170.811 0.955078 59.25 113.086 59.25 251.25 c 4
 59.25 389.61 171.165 501.695 309.385 502.306 c 6
309.385 502.306 m 4
EndSplineSet
Validated: 524289
EndChar

StartChar: h
Encoding: 104 104 68
Width: 677
VWidth: 0
Flags: W
HStem: 0 21G<66.7422 183.127 493.873 610.258> 0 21G<66.7422 183.127 493.873 610.258> 190.12 116.25<183.127 493.873> 476.505 20G<66.7422 183.127 493.873 610.258> 476.505 20G<66.7422 183.127 493.873 610.258>
VStem: 66.7422 116.385<0 190.12 306.37 496.505> 493.873 116.385<0 190.12 306.37 496.505>
LayerCount: 2
Fore
SplineSet
66.7422 496.505 m 1xb6
 183.127 496.505 l 1
 183.127 306.37 l 1
 493.873 306.37 l 1
 493.873 496.505 l 1
 610.258 496.505 l 1
 610.258 0 l 1
 493.873 0 l 1
 493.873 190.12 l 1
 183.127 190.12 l 1
 183.127 0 l 1
 66.7422 0 l 1
 66.7422 496.505 l 1xb6
66.7422 496.505 m 0
EndSplineSet
Validated: 524289
EndChar

StartChar: i
Encoding: 105 105 69
Width: 250
VWidth: 0
Flags: W
HStem: 0 21G<66.6973 183.303> 0 21G<66.6973 183.303> 476.485 20G<66.6973 183.077> 476.485 20G<66.6973 183.077>
VStem: 66.6973 116.605<0 496.485>
LayerCount: 2
Fore
SplineSet
66.6973 496.485 m 5xa8
 183.067 496.485 l 5
 183.303 0 l 5
 66.6973 0 l 5
 66.6973 496.485 l 5xa8
66.6973 496.485 m 4
EndSplineSet
Validated: 524289
EndChar

StartChar: j
Encoding: 106 106 70
Width: 605
VWidth: 0
Flags: W
HStem: 0 112.244<227.969 376.936> 474.255 20G<441.669 553.82>
VStem: 51.1797 112.325<181.612 249.489> 441.436 112.129<181.139 494.255>
LayerCount: 2
Fore
SplineSet
51.1797 250.114 m 5
 163.505 249.489 l 5
 164.445 173.515 226.24 112.244 302.43 112.244 c 4
 378.84 112.244 440.83 173.864 441.436 250.114 c 6
 441.689 494.255 l 5
 553.82 494.255 l 5
 553.564 249.489 l 6
 552.605 111.56 440.595 0 302.43 0 c 4
 164.07 0 51.7852 111.895 51.1797 250.114 c 5
51.1797 250.114 m 4
EndSplineSet
Validated: 524289
EndChar

StartChar: l
Encoding: 108 108 71
Width: 643
VWidth: 0
Flags: W
HStem: 0 116.365<166.112 593.258> 476.5 20G<49.7422 166.112> 476.5 20G<49.7422 166.112>
VStem: 49.7422 116.37<116.365 496.5>
LayerCount: 2
Fore
SplineSet
49.7422 496.5 m 5xd0
 166.112 496.5 l 5
 166.112 116.365 l 5
 593.258 116.365 l 5
 593.258 0 l 5
 49.7422 0 l 5
 49.7422 496.5 l 5xd0
49.7422 496.5 m 4
EndSplineSet
Validated: 524289
EndChar

StartChar: m
Encoding: 109 109 72
Width: 679
VWidth: 0
Flags: W
HStem: 0 21G<66.835 183.199 495.8 612.165> 0 21G<66.835 183.199 495.8 612.165> 473.689 20G<66.835 204.328 471.876 612.165>
VStem: 66.835 116.364<0 330.665> 495.8 116.365<0 332.245>
LayerCount: 2
Fore
SplineSet
66.835 493.689 m 5xb8
 186.345 493.689 l 5
 333.26 330.295 l 5
 491.21 493.689 l 5
 612.165 493.689 l 5
 612.165 0 l 5
 495.8 0 l 5
 495.8 332.245 l 5
 334.59 165.335 l 5
 333.145 163.87 l 5
 331.795 165.45 l 5
 183.199 330.665 l 5
 183.199 0 l 5
 66.835 0 l 5
 66.835 493.689 l 5xb8
66.835 493.689 m 4
EndSplineSet
Validated: 524289
EndChar

StartChar: n
Encoding: 110 110 73
Width: 667
VWidth: 0
Flags: W
HStem: 0 21G<66.9951 183.385 462.416 600.005> 0 21G<66.9951 183.385 462.416 600.005> 473.75 20G<66.9951 204.592 483.635 600.005>
VStem: 66.9951 116.39<0 330.74> 483.635 116.37<163.125 493.75>
LayerCount: 2
Fore
SplineSet
66.9951 493.75 m 5xb8
 186.625 493.75 l 5
 483.635 163.125 l 5
 483.635 493.75 l 5
 600.005 493.75 l 5
 600.005 0 l 5
 480.375 0 l 5
 183.385 330.74 l 5
 183.385 0 l 5
 66.9951 0 l 5
 66.9951 493.75 l 5xb8
66.9951 493.75 m 4
EndSplineSet
Validated: 524289
EndChar

StartChar: o
Encoding: 111 111 74
Width: 611
VWidth: 0
Flags: W
HStem: 0.75 112.245<230.631 380.276> 391 112.25<230.631 380.276>
VStem: 54.3076 112.13<177.182 326.816> 444.562 112.13<177.182 326.816>
LayerCount: 2
Fore
SplineSet
305.442 503.25 m 4
 444.192 503.25 556.692 390.75 556.692 252 c 4
 556.692 113.25 444.192 0.75 305.442 0.75 c 4
 166.692 0.75 54.3076 113.25 54.3076 252 c 4
 54.3076 390.75 166.692 503.25 305.442 503.25 c 4
305.442 391 m 4
 228.667 391 166.438 328.775 166.438 252 c 4
 166.438 175.22 228.667 112.995 305.442 112.995 c 4
 382.217 112.995 444.562 175.22 444.562 252 c 4
 444.562 328.775 382.217 391 305.442 391 c 4
305.442 391 m 4
EndSplineSet
Validated: 524289
EndChar

StartChar: p
Encoding: 112 112 75
Width: 632
VWidth: 0
Flags: W
HStem: 0 21G<61.5684 178.188> 0 21G<61.5684 178.188> 124.025 120<178.188 429.338> 380.136 120.51<177.932 429.251>
VStem: 61.5684 116.619<0 124.025 244.025 380.136> 450.318 120.113<264.225 360.289>
LayerCount: 2
Fore
SplineSet
61.5684 500.646 m 5xbc
 382.193 500.646 l 6
 486.197 500.646 570.432 416.385 570.432 312.4 c 4
 570.432 208.436 486.252 124.221 382.307 124.141 c 5
 382.307 124.025 l 5
 178.188 124.025 l 5
 178.188 0 l 5
 61.5684 0 l 5
 61.5684 500.646 l 5xbc
450.318 312.4 m 5
 444.047 351.271 423.543 377.971 382.307 380.136 c 6
 177.932 380.136 l 5
 178.053 244.025 l 5
 382.193 244.275 l 6
 419.807 244.275 450.318 274.785 450.318 312.4 c 5
450.318 312.4 m 4
EndSplineSet
Validated: 524289
EndChar

StartChar: r
Encoding: 114 114 76
Width: 642
VWidth: 0
Flags: W
HStem: -0.625 21G<63.8125 180.438 428.831 578.188> -0.625 21G<63.8125 180.438 428.831 578.188> 124.12 120<180.438 347.701> 380.255 120.37<180.201 431.497>
VStem: 63.8125 116.504<0 124.12 244.12 380.255 500.625 500.88> 452.562 120.139<264.237 360.403>
LayerCount: 2
Fore
SplineSet
63.8125 500.88 m 5xbc
 180.201 500.88 l 5
 180.201 500.625 l 5
 384.438 500.88 l 6
 488.441 500.88 572.701 416.505 572.701 312.5 c 4
 572.701 237.97 529.477 173.515 466.688 143.005 c 5
 578.188 -0.625 l 5
 444.322 -0.625 l 5
 347.701 124.12 l 5
 180.438 124.12 l 5
 180.438 0 l 5
 63.8125 0 l 5
 63.8125 500.88 l 5xbc
180.201 380.255 m 5
 180.316 244.12 l 5
 384.438 244.375 l 6
 422.057 244.375 452.562 274.88 452.562 312.5 c 5
 446.292 351.385 425.807 378.085 384.576 380.255 c 6
 180.201 380.255 l 5
180.201 380.255 m 4
EndSplineSet
Validated: 524289
EndChar

StartChar: s
Encoding: 115 115 77
Width: 698
VWidth: 0
Flags: W
HStem: -70.25 120.371<105.867 501.05> 186.056 120.06<196.842 501.151> 442.11 120.625<196.934 592.117>
VStem: 55.748 120.119<327.328 421.435> 522.117 120.135<70.8078 164.917>
LayerCount: 2
Fore
SplineSet
243.992 562.735 m 6
 592.232 562.501 l 5
 592.117 442.11 l 5
 243.873 442.11 l 6
 202.643 439.945 176.021 412.735 175.867 374.375 c 4
 175.728 336 206.373 306.115 243.992 306.115 c 6
 454.127 306.115 l 6
 558.053 306.056 642.252 221.841 642.252 117.875 c 4
 642.252 13.8711 557.992 -70.5039 453.992 -70.5039 c 6
 105.748 -70.25 l 5
 105.867 50.1211 l 5
 454.107 50.1211 l 6
 495.357 52.2852 521.978 79.4961 522.117 117.875 c 4
 522.252 156.23 491.607 185.605 453.992 186 c 6
 243.873 186.056 l 6
 139.928 186.115 55.748 270.41 55.748 374.375 c 4
 55.748 478.36 139.987 562.735 243.992 562.735 c 6
243.992 562.735 m 4
EndSplineSet
Validated: 524321
EndChar

StartChar: t
Encoding: 116 116 78
Width: 635
VWidth: 0
Flags: W
HStem: 0 21G<260.87 378.115> 0 21G<260.87 378.115> 380.255 116.25<41.1602 260.87 378.115 593.84>
VStem: 260.87 117.245<0 380.255>
LayerCount: 2
Fore
SplineSet
41.1602 496.505 m 5xb0
 261.75 496.505 l 5
 593.84 496.505 l 5
 593.84 380.255 l 5
 378.115 380.255 l 5
 378.115 0 l 5
 260.87 0 l 5
 260.87 380.255 l 5
 41.1602 380.255 l 5
 41.1602 496.505 l 5xb0
41.1602 496.505 m 4
EndSplineSet
Validated: 524289
EndChar

StartChar: u
Encoding: 117 117 79
Width: 630
VWidth: 0
Flags: W
HStem: 0 112.25<240.537 382.484> 476.811 20G<63.5645 176.436 454.189 566.436> 476.811 20G<63.5645 176.436 454.189 566.436>
VStem: 63.5645 112.637<181.658 496.811> 454.189 112.246<181.616 496.811>
LayerCount: 2
Fore
SplineSet
454.189 496.811 m 5xd8
 566.436 496.811 l 5
 566.436 250.12 l 2
 566.436 111.895 453.564 0 315.186 0 c 0
 176.904 0 63.5645 112.014 63.5645 250.12 c 2
 63.5645 496.811 l 5
 176.436 496.811 l 5
 176.201 250.12 l 2
 176.129 173.962 238.881 112.25 315.186 112.25 c 1
 394.17 124.905 447.785 165.57 454.189 250.12 c 1
 454.189 496.811 l 5xd8
454.189 496.811 m 4
EndSplineSet
Validated: 524321
EndChar

StartChar: v
Encoding: 118 118 80
Width: 543
VWidth: 0
Flags: W
HStem: 0 21G<62.6895 200.328> 0 21G<62.6895 200.328> 476.75 20G<62.6895 179.061> 476.75 20G<62.6895 179.061 458.093 480.311>
VStem: 62.6895 116.371<162.984 496.75>
LayerCount: 2
Fore
SplineSet
62.6895 0 m 1xa8
 62.6895 496.75 l 1
 179.061 496.75 l 1
 179.061 162.984 l 1
 476.051 493.75 l 1
 480.311 493.75 l 1
 480.311 330.625 l 1
 182.301 0 l 1
 177.07 0 l 1
 62.6895 0 l 1xa8
62.6895 0 m 0
EndSplineSet
Validated: 524289
EndChar

StartChar: w
Encoding: 119 119 81
Width: 957
VWidth: 0
Flags: W
HStem: 0 21G<62.6895 200.346 476.695 614.352> 0 21G<62.6895 200.346 476.695 614.352> 475.75 20G<62.6895 179.076 458.219 593.061> 475.75 20G<62.6895 179.076 458.219 593.061 872.116 894.311>
VStem: 62.6895 116.387<163.01 495.75> 476.695 116.365<163.01 326.62>
LayerCount: 2
Fore
SplineSet
62.6895 495.75 m 1xac
 179.076 495.75 l 1
 179.076 163.01 l 1
 476.07 495.75 l 1
 593.061 495.75 l 1
 593.061 163.01 l 1
 890.076 493.75 l 1
 894.311 493.75 l 1
 894.311 330.625 l 1
 596.326 0 l 1
 476.695 0 l 1
 476.695 326.62 l 1
 182.32 0 l 1
 62.6895 0 l 1
 62.6895 495.75 l 1xac
62.6895 495.75 m 0
EndSplineSet
Validated: 524289
EndChar

StartChar: y
Encoding: 121 121 82
Width: 530
VWidth: 0
Flags: W
HStem: 462.62 20G<46.5625 213.635 316.343 483.438>
LayerCount: 2
Fore
SplineSet
46.5625 482.62 m 5
 201.562 482.62 l 5
 264.941 377.62 l 5
 328.438 482.62 l 5
 483.438 482.62 l 5
 203.827 16 l 5
 46.5625 16 l 5
 186.952 248.38 l 5
 46.5625 482.62 l 5
46.5625 482.62 m 4
EndSplineSet
Validated: 524289
EndChar

StartChar: z
Encoding: 122 122 83
Width: 678
VWidth: 0
Flags: W
HStem: 15.7646 116.74<357.055 625.436> 365.375 116.39<52.5645 341.176>
LayerCount: 2
Fore
SplineSet
52.5645 481.765 m 5
 566.801 482.39 l 5
 357.055 132.505 l 5
 625.436 132.64 l 5
 625.436 16 l 5
 129.926 15.7646 l 5
 341.176 365.375 l 5
 52.5645 365.375 l 5
 52.5645 481.765 l 5
52.5645 481.765 m 4
EndSplineSet
Validated: 524289
EndChar

StartChar: ampersand
Encoding: 38 38 85
Width: 1129
VWidth: 0
Flags: W
HStem: 0 116.37<183.74 610.87> 190.12 116.25<183.74 945.375> 380.12 116.385<183.74 610.87>
VStem: 67.375 116.365<116.37 190.12 306.37 380.12> 945.375 116.25<-26 189.725 306.97 526.68>
LayerCount: 2
Fore
SplineSet
67.375 496.505 m 1
 610.87 496.505 l 1
 610.87 380.12 l 1
 183.74 380.12 l 1
 183.74 306.37 l 1
 565.12 306.37 l 1
 565.12 306.97 l 1
 945.375 306.97 l 1
 945.375 526.68 l 1
 1061.62 526.68 l 1
 1061.62 306.09 l 1
 1061.62 -26 l 1
 945.375 -26 l 1
 945.375 189.725 l 1
 565.12 189.725 l 1
 565.12 190.12 l 1
 183.74 190.12 l 1
 183.74 116.37 l 1
 610.87 116.37 l 1
 610.87 0 l 1
 67.375 0 l 1
 67.375 496.505 l 1
EndSplineSet
Validated: 524289
EndChar
